<mxfile host="app.diagrams.net" modified="2021-02-18T09:01:33.240Z" agent="5.0 (Macintosh; Intel Mac OS X 10_15_3) AppleWebKit/537.36 (KHTML, like Gecko) Chrome/88.0.4324.150 Safari/537.36" etag="NzguTMtFTxOAgjqHkXfT" version="14.3.1" type="github">
  <diagram id="i3n5vXToDW6FvOsbO55V" name="第 1 页">
    <mxGraphModel dx="946" dy="646" grid="1" gridSize="10" guides="1" tooltips="1" connect="1" arrows="1" fold="1" page="1" pageScale="1" pageWidth="827" pageHeight="1169" math="0" shadow="0">
      <root>
        <mxCell id="0" />
        <mxCell id="1" parent="0" />
        <mxCell id="TfTN-0NzywnzAX5zGlkz-5" value="" style="rounded=0;whiteSpace=wrap;html=1;fillColor=#d5e8d4;strokeColor=#82b366;" parent="1" vertex="1">
          <mxGeometry x="30" y="20" width="520" height="100" as="geometry" />
        </mxCell>
        <mxCell id="TfTN-0NzywnzAX5zGlkz-3" style="edgeStyle=orthogonalEdgeStyle;rounded=0;orthogonalLoop=1;jettySize=auto;html=1;entryX=0;entryY=0.5;entryDx=0;entryDy=0;" parent="1" source="TfTN-0NzywnzAX5zGlkz-1" target="TfTN-0NzywnzAX5zGlkz-2" edge="1">
          <mxGeometry relative="1" as="geometry" />
        </mxCell>
        <mxCell id="TfTN-0NzywnzAX5zGlkz-1" value="sutdent" style="rounded=0;whiteSpace=wrap;html=1;fillColor=#f8cecc;strokeColor=#b85450;" parent="1" vertex="1">
          <mxGeometry x="80" y="40" width="120" height="60" as="geometry" />
        </mxCell>
        <mxCell id="TfTN-0NzywnzAX5zGlkz-4" style="edgeStyle=orthogonalEdgeStyle;rounded=0;orthogonalLoop=1;jettySize=auto;html=1;exitX=0;exitY=0.25;exitDx=0;exitDy=0;entryX=1;entryY=0.25;entryDx=0;entryDy=0;" parent="1" source="TfTN-0NzywnzAX5zGlkz-2" target="TfTN-0NzywnzAX5zGlkz-1" edge="1">
          <mxGeometry relative="1" as="geometry" />
        </mxCell>
        <mxCell id="TfTN-0NzywnzAX5zGlkz-2" value="testBean" style="rounded=0;whiteSpace=wrap;html=1;fillColor=#f8cecc;strokeColor=#b85450;" parent="1" vertex="1">
          <mxGeometry x="360" y="40" width="120" height="60" as="geometry" />
        </mxCell>
        <mxCell id="TfTN-0NzywnzAX5zGlkz-6" value="&lt;font style=&quot;font-size: 20px&quot;&gt;&lt;b&gt;循环依赖&lt;/b&gt;&lt;/font&gt;" style="text;html=1;strokeColor=none;fillColor=none;align=center;verticalAlign=middle;whiteSpace=wrap;rounded=0;" parent="1" vertex="1">
          <mxGeometry x="580" y="50" width="200" height="30" as="geometry" />
        </mxCell>
        <mxCell id="TfTN-0NzywnzAX5zGlkz-7" value="&lt;font size=&quot;1&quot;&gt;&lt;b style=&quot;font-size: 30px&quot;&gt;Spring的属性注入是怎么解决循环依赖的&lt;/b&gt;&lt;/font&gt;" style="text;html=1;strokeColor=none;fillColor=none;align=center;verticalAlign=middle;whiteSpace=wrap;rounded=0;" parent="1" vertex="1">
          <mxGeometry y="220" width="800" height="50" as="geometry" />
        </mxCell>
        <mxCell id="TfTN-0NzywnzAX5zGlkz-9" value="&lt;br&gt;先是加载完成了 bean的配置信息，获得了bean工厂这些的前提下开始初始化bean" style="text;html=1;strokeColor=none;fillColor=none;spacing=5;spacingTop=-20;whiteSpace=wrap;overflow=hidden;rounded=0;" parent="1" vertex="1">
          <mxGeometry x="45" y="290" width="205" height="60" as="geometry" />
        </mxCell>
        <mxCell id="TfTN-0NzywnzAX5zGlkz-20" style="edgeStyle=orthogonalEdgeStyle;rounded=0;orthogonalLoop=1;jettySize=auto;html=1;entryX=0.5;entryY=0;entryDx=0;entryDy=0;" parent="1" source="TfTN-0NzywnzAX5zGlkz-10" target="TfTN-0NzywnzAX5zGlkz-13" edge="1">
          <mxGeometry relative="1" as="geometry" />
        </mxCell>
        <mxCell id="TfTN-0NzywnzAX5zGlkz-10" value="拿到bean的定义信息中的bean 名字，开始循环遍历创建bean" style="rounded=0;whiteSpace=wrap;html=1;" parent="1" vertex="1">
          <mxGeometry x="80" y="360" width="120" height="80" as="geometry" />
        </mxCell>
        <mxCell id="TfTN-0NzywnzAX5zGlkz-21" style="edgeStyle=orthogonalEdgeStyle;rounded=0;orthogonalLoop=1;jettySize=auto;html=1;entryX=0.5;entryY=0;entryDx=0;entryDy=0;" parent="1" source="TfTN-0NzywnzAX5zGlkz-13" target="TfTN-0NzywnzAX5zGlkz-14" edge="1">
          <mxGeometry relative="1" as="geometry" />
        </mxCell>
        <mxCell id="TfTN-0NzywnzAX5zGlkz-13" value="创建Student" style="rounded=0;whiteSpace=wrap;html=1;" parent="1" vertex="1">
          <mxGeometry x="80" y="520" width="120" height="80" as="geometry" />
        </mxCell>
        <mxCell id="TfTN-0NzywnzAX5zGlkz-27" style="edgeStyle=orthogonalEdgeStyle;rounded=0;orthogonalLoop=1;jettySize=auto;html=1;" parent="1" source="TfTN-0NzywnzAX5zGlkz-14" target="TfTN-0NzywnzAX5zGlkz-24" edge="1">
          <mxGeometry relative="1" as="geometry" />
        </mxCell>
        <mxCell id="TfTN-0NzywnzAX5zGlkz-14" value="因为是无参构造，所以可以通过无参的方式 创建出一个对象" style="rounded=0;whiteSpace=wrap;html=1;" parent="1" vertex="1">
          <mxGeometry x="80" y="640" width="120" height="80" as="geometry" />
        </mxCell>
        <mxCell id="TfTN-0NzywnzAX5zGlkz-18" style="edgeStyle=orthogonalEdgeStyle;rounded=0;orthogonalLoop=1;jettySize=auto;html=1;" parent="1" source="TfTN-0NzywnzAX5zGlkz-15" target="TfTN-0NzywnzAX5zGlkz-16" edge="1">
          <mxGeometry relative="1" as="geometry" />
        </mxCell>
        <mxCell id="TfTN-0NzywnzAX5zGlkz-19" style="edgeStyle=orthogonalEdgeStyle;rounded=0;orthogonalLoop=1;jettySize=auto;html=1;" parent="1" source="TfTN-0NzywnzAX5zGlkz-15" target="TfTN-0NzywnzAX5zGlkz-17" edge="1">
          <mxGeometry relative="1" as="geometry" />
        </mxCell>
        <mxCell id="TfTN-0NzywnzAX5zGlkz-15" value="装饰bean的属性" style="rounded=0;whiteSpace=wrap;html=1;" parent="1" vertex="1">
          <mxGeometry x="80" y="850" width="120" height="80" as="geometry" />
        </mxCell>
        <mxCell id="TfTN-0NzywnzAX5zGlkz-16" value="id" style="rounded=0;whiteSpace=wrap;html=1;" parent="1" vertex="1">
          <mxGeometry y="1000" width="120" height="80" as="geometry" />
        </mxCell>
        <mxCell id="TfTN-0NzywnzAX5zGlkz-30" style="edgeStyle=orthogonalEdgeStyle;rounded=0;orthogonalLoop=1;jettySize=auto;html=1;" parent="1" source="TfTN-0NzywnzAX5zGlkz-17" target="TfTN-0NzywnzAX5zGlkz-23" edge="1">
          <mxGeometry relative="1" as="geometry" />
        </mxCell>
        <mxCell id="TfTN-0NzywnzAX5zGlkz-17" value="testBean的引用对象（这里的引用对象只是表示一个引用而已，并没有什么实际的对象）" style="rounded=0;whiteSpace=wrap;html=1;" parent="1" vertex="1">
          <mxGeometry x="200" y="1000" width="120" height="80" as="geometry" />
        </mxCell>
        <mxCell id="TfTN-0NzywnzAX5zGlkz-32" style="edgeStyle=orthogonalEdgeStyle;rounded=0;orthogonalLoop=1;jettySize=auto;html=1;entryX=0;entryY=0.5;entryDx=0;entryDy=0;" parent="1" source="TfTN-0NzywnzAX5zGlkz-23" target="TfTN-0NzywnzAX5zGlkz-29" edge="1">
          <mxGeometry relative="1" as="geometry" />
        </mxCell>
        <mxCell id="TfTN-0NzywnzAX5zGlkz-23" value="去工厂里面捞 名字是 testBean 的bea&lt;br&gt;n，这里捞的时候传了一个参数 为true就可以去二级和三级缓存中捞" style="rounded=0;whiteSpace=wrap;html=1;" parent="1" vertex="1">
          <mxGeometry x="200" y="1160" width="120" height="80" as="geometry" />
        </mxCell>
        <mxCell id="TfTN-0NzywnzAX5zGlkz-28" style="edgeStyle=orthogonalEdgeStyle;rounded=0;orthogonalLoop=1;jettySize=auto;html=1;exitX=0.25;exitY=1;exitDx=0;exitDy=0;entryX=0.5;entryY=0;entryDx=0;entryDy=0;" parent="1" source="TfTN-0NzywnzAX5zGlkz-24" target="TfTN-0NzywnzAX5zGlkz-15" edge="1">
          <mxGeometry relative="1" as="geometry" />
        </mxCell>
        <mxCell id="TfTN-0NzywnzAX5zGlkz-24" value="如果允许Spring自己解决循环依赖，Spring就会将当前的这个bean 放在 三级缓存中， 三级缓存中放了一段代码，用于创建代理对象，" style="rounded=0;whiteSpace=wrap;html=1;" parent="1" vertex="1">
          <mxGeometry x="80" y="750" width="340" height="80" as="geometry" />
        </mxCell>
        <mxCell id="TfTN-0NzywnzAX5zGlkz-36" style="edgeStyle=orthogonalEdgeStyle;rounded=0;orthogonalLoop=1;jettySize=auto;html=1;entryX=0.5;entryY=0;entryDx=0;entryDy=0;" parent="1" source="TfTN-0NzywnzAX5zGlkz-29" target="TfTN-0NzywnzAX5zGlkz-33" edge="1">
          <mxGeometry relative="1" as="geometry" />
        </mxCell>
        <mxCell id="TfTN-0NzywnzAX5zGlkz-29" value="一，二，三 级缓存中没有&lt;br&gt;testbean" style="rounded=0;whiteSpace=wrap;html=1;" parent="1" vertex="1">
          <mxGeometry x="560" y="360" width="120" height="80" as="geometry" />
        </mxCell>
        <mxCell id="TfTN-0NzywnzAX5zGlkz-31" value="&lt;br&gt;&lt;br&gt;如果捞得到 就返回，捞不到就继续往下走" style="text;html=1;strokeColor=none;fillColor=none;spacing=5;spacingTop=-20;whiteSpace=wrap;overflow=hidden;rounded=0;" parent="1" vertex="1">
          <mxGeometry x="340" y="1169" width="190" height="120" as="geometry" />
        </mxCell>
        <mxCell id="TfTN-0NzywnzAX5zGlkz-37" style="edgeStyle=orthogonalEdgeStyle;rounded=0;orthogonalLoop=1;jettySize=auto;html=1;entryX=0.5;entryY=0;entryDx=0;entryDy=0;" parent="1" source="TfTN-0NzywnzAX5zGlkz-33" target="TfTN-0NzywnzAX5zGlkz-34" edge="1">
          <mxGeometry relative="1" as="geometry" />
        </mxCell>
        <mxCell id="TfTN-0NzywnzAX5zGlkz-33" value="&lt;span style=&quot;color: rgb(0 , 0 , 0) ; font-family: &amp;#34;helvetica&amp;#34; ; font-size: 12px ; font-style: normal ; font-weight: 400 ; letter-spacing: normal ; text-align: center ; text-indent: 0px ; text-transform: none ; word-spacing: 0px ; background-color: rgb(248 , 249 , 250) ; display: inline ; float: none&quot;&gt;创建 testBean&lt;/span&gt;" style="rounded=0;whiteSpace=wrap;html=1;" parent="1" vertex="1">
          <mxGeometry x="560" y="520" width="120" height="80" as="geometry" />
        </mxCell>
        <mxCell id="TfTN-0NzywnzAX5zGlkz-38" style="edgeStyle=orthogonalEdgeStyle;rounded=0;orthogonalLoop=1;jettySize=auto;html=1;entryX=0.176;entryY=0;entryDx=0;entryDy=0;entryPerimeter=0;" parent="1" source="TfTN-0NzywnzAX5zGlkz-34" target="TfTN-0NzywnzAX5zGlkz-35" edge="1">
          <mxGeometry relative="1" as="geometry" />
        </mxCell>
        <mxCell id="TfTN-0NzywnzAX5zGlkz-34" value="因为是无参构造，所以可以通过无参的方式 创建出一个对象" style="rounded=0;whiteSpace=wrap;html=1;" parent="1" vertex="1">
          <mxGeometry x="560" y="640" width="120" height="80" as="geometry" />
        </mxCell>
        <mxCell id="TfTN-0NzywnzAX5zGlkz-40" style="edgeStyle=orthogonalEdgeStyle;rounded=0;orthogonalLoop=1;jettySize=auto;html=1;entryX=0.5;entryY=0;entryDx=0;entryDy=0;" parent="1" source="TfTN-0NzywnzAX5zGlkz-35" target="TfTN-0NzywnzAX5zGlkz-39" edge="1">
          <mxGeometry relative="1" as="geometry">
            <Array as="points">
              <mxPoint x="630" y="830" />
              <mxPoint x="630" y="830" />
            </Array>
          </mxGeometry>
        </mxCell>
        <mxCell id="TfTN-0NzywnzAX5zGlkz-35" value="如果允许Spring自己解决循环依赖，Spring就会将当前的这个bean 放在 三级缓存中， 三级缓存中放了一段代码，用于创建代理对象，" style="rounded=0;whiteSpace=wrap;html=1;" parent="1" vertex="1">
          <mxGeometry x="560" y="750" width="340" height="80" as="geometry" />
        </mxCell>
        <mxCell id="TfTN-0NzywnzAX5zGlkz-45" style="edgeStyle=orthogonalEdgeStyle;rounded=0;orthogonalLoop=1;jettySize=auto;html=1;entryX=0.5;entryY=0;entryDx=0;entryDy=0;" parent="1" source="TfTN-0NzywnzAX5zGlkz-39" target="TfTN-0NzywnzAX5zGlkz-41" edge="1">
          <mxGeometry relative="1" as="geometry" />
        </mxCell>
        <mxCell id="TfTN-0NzywnzAX5zGlkz-46" style="edgeStyle=orthogonalEdgeStyle;rounded=0;orthogonalLoop=1;jettySize=auto;html=1;exitX=0.75;exitY=1;exitDx=0;exitDy=0;entryX=0.5;entryY=0;entryDx=0;entryDy=0;" parent="1" source="TfTN-0NzywnzAX5zGlkz-39" target="TfTN-0NzywnzAX5zGlkz-44" edge="1">
          <mxGeometry relative="1" as="geometry" />
        </mxCell>
        <mxCell id="TfTN-0NzywnzAX5zGlkz-39" value="装饰bean的属性" style="rounded=0;whiteSpace=wrap;html=1;" parent="1" vertex="1">
          <mxGeometry x="560" y="850" width="120" height="80" as="geometry" />
        </mxCell>
        <mxCell id="TfTN-0NzywnzAX5zGlkz-41" value="id" style="rounded=0;whiteSpace=wrap;html=1;" parent="1" vertex="1">
          <mxGeometry x="510" y="1000" width="120" height="80" as="geometry" />
        </mxCell>
        <mxCell id="TfTN-0NzywnzAX5zGlkz-48" style="edgeStyle=orthogonalEdgeStyle;rounded=0;orthogonalLoop=1;jettySize=auto;html=1;entryX=0.5;entryY=0;entryDx=0;entryDy=0;" parent="1" source="TfTN-0NzywnzAX5zGlkz-44" target="TfTN-0NzywnzAX5zGlkz-47" edge="1">
          <mxGeometry relative="1" as="geometry" />
        </mxCell>
        <mxCell id="TfTN-0NzywnzAX5zGlkz-44" value="引用了一个student对象" style="rounded=0;whiteSpace=wrap;html=1;" parent="1" vertex="1">
          <mxGeometry x="690" y="1000" width="120" height="80" as="geometry" />
        </mxCell>
        <mxCell id="TfTN-0NzywnzAX5zGlkz-50" style="edgeStyle=orthogonalEdgeStyle;rounded=0;orthogonalLoop=1;jettySize=auto;html=1;entryX=0.008;entryY=0.425;entryDx=0;entryDy=0;entryPerimeter=0;" parent="1" source="TfTN-0NzywnzAX5zGlkz-47" target="TfTN-0NzywnzAX5zGlkz-49" edge="1">
          <mxGeometry relative="1" as="geometry" />
        </mxCell>
        <mxCell id="TfTN-0NzywnzAX5zGlkz-47" value="去工厂里面捞 名字是student 的bea&lt;br&gt;n，这里捞的时候传了一个参数 为true就可以去二级和三级缓存中捞" style="rounded=0;whiteSpace=wrap;html=1;" parent="1" vertex="1">
          <mxGeometry x="690" y="1150" width="120" height="80" as="geometry" />
        </mxCell>
        <mxCell id="TfTN-0NzywnzAX5zGlkz-54" style="edgeStyle=orthogonalEdgeStyle;rounded=0;orthogonalLoop=1;jettySize=auto;html=1;entryX=0.5;entryY=0;entryDx=0;entryDy=0;" parent="1" source="TfTN-0NzywnzAX5zGlkz-49" target="TfTN-0NzywnzAX5zGlkz-53" edge="1">
          <mxGeometry relative="1" as="geometry" />
        </mxCell>
        <mxCell id="TfTN-0NzywnzAX5zGlkz-49" value="一级缓存中没有，&lt;br&gt;二级缓存中没有，&lt;br&gt;三级缓存中捞到了" style="rounded=0;whiteSpace=wrap;html=1;" parent="1" vertex="1">
          <mxGeometry x="1100" y="360" width="120" height="80" as="geometry" />
        </mxCell>
        <mxCell id="TfTN-0NzywnzAX5zGlkz-51" value="&lt;br&gt;&lt;br&gt;根据bean 名字捞到了之前放置好的 那一段函数表达式" style="text;html=1;strokeColor=#d6b656;fillColor=#fff2cc;spacing=5;spacingTop=-20;whiteSpace=wrap;overflow=hidden;rounded=0;" parent="1" vertex="1">
          <mxGeometry x="1220" y="360" width="200" height="80" as="geometry" />
        </mxCell>
        <mxCell id="TfTN-0NzywnzAX5zGlkz-57" style="edgeStyle=orthogonalEdgeStyle;rounded=0;orthogonalLoop=1;jettySize=auto;html=1;entryX=0.5;entryY=0;entryDx=0;entryDy=0;" parent="1" source="TfTN-0NzywnzAX5zGlkz-53" target="TfTN-0NzywnzAX5zGlkz-56" edge="1">
          <mxGeometry relative="1" as="geometry" />
        </mxCell>
        <mxCell id="TfTN-0NzywnzAX5zGlkz-53" value="&lt;font face=&quot;helvetica&quot;&gt;调用 三级缓存中的那段表达式获取值&lt;/font&gt;" style="rounded=0;whiteSpace=wrap;html=1;" parent="1" vertex="1">
          <mxGeometry x="1100" y="520" width="120" height="80" as="geometry" />
        </mxCell>
        <mxCell id="TfTN-0NzywnzAX5zGlkz-56" value="将这个值放在二级缓存中，从三级缓存中移除对应的bean， 这里就是 student" style="rounded=0;whiteSpace=wrap;html=1;" parent="1" vertex="1">
          <mxGeometry x="1100" y="650" width="120" height="80" as="geometry" />
        </mxCell>
        <mxCell id="TfTN-0NzywnzAX5zGlkz-66" style="edgeStyle=orthogonalEdgeStyle;rounded=0;orthogonalLoop=1;jettySize=auto;html=1;entryX=0.5;entryY=0;entryDx=0;entryDy=0;" parent="1" source="TfTN-0NzywnzAX5zGlkz-59" target="TfTN-0NzywnzAX5zGlkz-65" edge="1">
          <mxGeometry relative="1" as="geometry" />
        </mxCell>
        <mxCell id="TfTN-0NzywnzAX5zGlkz-59" value="就将这个值返回去，继续装配 testBean 的属性。" style="rounded=0;whiteSpace=wrap;html=1;" parent="1" vertex="1">
          <mxGeometry x="1100" y="780" width="120" height="80" as="geometry" />
        </mxCell>
        <mxCell id="TfTN-0NzywnzAX5zGlkz-64" style="edgeStyle=orthogonalEdgeStyle;rounded=0;orthogonalLoop=1;jettySize=auto;html=1;" parent="1" source="TfTN-0NzywnzAX5zGlkz-61" target="TfTN-0NzywnzAX5zGlkz-62" edge="1">
          <mxGeometry relative="1" as="geometry" />
        </mxCell>
        <mxCell id="TfTN-0NzywnzAX5zGlkz-61" value="装配完了之后，就调用他的 postProcess##after方法和init方法，和post-process-before方法，&lt;br&gt;如果这个bean有destroy方法的话就会将这个ban 注册到一个destroybean 的map里面。供容器关闭的时候调用" style="rounded=0;whiteSpace=wrap;html=1;" parent="1" vertex="1">
          <mxGeometry x="1100" y="950" width="250" height="120" as="geometry" />
        </mxCell>
        <mxCell id="TfTN-0NzywnzAX5zGlkz-62" value="将这个 testBean 放在一级缓存中去，&lt;br&gt;从二级和三级缓存中移除 testbean" style="rounded=0;whiteSpace=wrap;html=1;" parent="1" vertex="1">
          <mxGeometry x="1100" y="1160" width="240" height="80" as="geometry" />
        </mxCell>
        <mxCell id="TfTN-0NzywnzAX5zGlkz-65" value="注册一下 bean 之前的依赖关系。" style="rounded=0;whiteSpace=wrap;html=1;" parent="1" vertex="1">
          <mxGeometry x="1100" y="870" width="120" height="70" as="geometry" />
        </mxCell>
        <mxCell id="TfTN-0NzywnzAX5zGlkz-70" style="edgeStyle=orthogonalEdgeStyle;rounded=0;orthogonalLoop=1;jettySize=auto;html=1;entryX=0.5;entryY=0;entryDx=0;entryDy=0;" parent="1" source="TfTN-0NzywnzAX5zGlkz-68" target="TfTN-0NzywnzAX5zGlkz-69" edge="1">
          <mxGeometry relative="1" as="geometry" />
        </mxCell>
        <mxCell id="TfTN-0NzywnzAX5zGlkz-68" value="到现在 testBean 已经完全实例化好了，将这个bean 返回继续装配 student bean 的属性" style="rounded=0;whiteSpace=wrap;html=1;" parent="1" vertex="1">
          <mxGeometry x="1560" y="360" width="120" height="80" as="geometry" />
        </mxCell>
        <mxCell id="TfTN-0NzywnzAX5zGlkz-72" style="edgeStyle=orthogonalEdgeStyle;rounded=0;orthogonalLoop=1;jettySize=auto;html=1;" parent="1" source="TfTN-0NzywnzAX5zGlkz-69" target="TfTN-0NzywnzAX5zGlkz-71" edge="1">
          <mxGeometry relative="1" as="geometry" />
        </mxCell>
        <mxCell id="TfTN-0NzywnzAX5zGlkz-69" value="注册一下 bean 之前的依赖关系。" style="rounded=0;whiteSpace=wrap;html=1;" parent="1" vertex="1">
          <mxGeometry x="1560" y="515" width="120" height="70" as="geometry" />
        </mxCell>
        <mxCell id="TfTN-0NzywnzAX5zGlkz-74" style="edgeStyle=orthogonalEdgeStyle;rounded=0;orthogonalLoop=1;jettySize=auto;html=1;" parent="1" source="TfTN-0NzywnzAX5zGlkz-71" target="TfTN-0NzywnzAX5zGlkz-73" edge="1">
          <mxGeometry relative="1" as="geometry" />
        </mxCell>
        <mxCell id="TfTN-0NzywnzAX5zGlkz-71" value="装配完了之后，就调用他的 postProcess##after方法和init方法，和post-process-before方法，&lt;br&gt;如果这个bean有destroy方法的话就会将这个ban 注册到一个destroybean 的map里面。供容器关闭的时候调用" style="rounded=0;whiteSpace=wrap;html=1;" parent="1" vertex="1">
          <mxGeometry x="1510" y="680" width="250" height="120" as="geometry" />
        </mxCell>
        <mxCell id="TfTN-0NzywnzAX5zGlkz-73" value="将这个 student 放在一级缓存中去&lt;br&gt;从二级和三级中移除 student" style="rounded=0;whiteSpace=wrap;html=1;" parent="1" vertex="1">
          <mxGeometry x="1515" y="910" width="240" height="80" as="geometry" />
        </mxCell>
        <mxCell id="TfTN-0NzywnzAX5zGlkz-75" value="因为开始是循环遍历，循环的下一个是 testBean， 去工厂中检查的时候发现有testbean，直接返回， 结束" style="rounded=0;whiteSpace=wrap;html=1;" parent="1" vertex="1">
          <mxGeometry x="1515" y="1109" width="255" height="71" as="geometry" />
        </mxCell>
        <mxCell id="TfTN-0NzywnzAX5zGlkz-76" value="&lt;h1&gt;疑惑&lt;/h1&gt;&lt;div&gt;- 三级缓存中的 testBean 如果需要代理的话，会怎么办？在整个过程中好像没有 调用到testbean的三级缓存的操作&lt;br&gt;&lt;/div&gt;" style="text;html=1;strokeColor=#82b366;fillColor=#d5e8d4;spacing=5;spacingTop=-20;whiteSpace=wrap;overflow=hidden;rounded=0;" parent="1" vertex="1">
          <mxGeometry x="1973" y="680" width="190" height="120" as="geometry" />
        </mxCell>
        <mxCell id="jxnwsPyPSVRZ5UlL7dv--1" value="我重新走了一边，发现不行，testbean 的三级缓存是真的没有调用，直接就移除了。就很奇妙，我等会再看看" style="rounded=0;whiteSpace=wrap;html=1;fillColor=#d5e8d4;strokeColor=#82b366;" vertex="1" parent="1">
          <mxGeometry x="1973" y="850" width="187" height="190" as="geometry" />
        </mxCell>
      </root>
    </mxGraphModel>
  </diagram>
</mxfile>
